HIERARCHY
ROOT reference
{
  OFFSET 0 0 0
  CHANNELS 6 Xposition Yposition Zposition Zrotation Xrotation Yrotation
  JOINT Hips
  {
    OFFSET 44.6805 85.9651 -20.1189
    CHANNELS 3 Zrotation Xrotation Yrotation
    JOINT RightUpLeg
    {
      OFFSET -9.20028 -1.61905 0.0313892
      CHANNELS 3 Zrotation Xrotation Yrotation
      JOINT RightLeg
      {
        OFFSET 0.0920446 -41.8676 0.113709
        CHANNELS 3 Zrotation Xrotation Yrotation
        JOINT RightFoot
        {
          OFFSET -0.78009 -42.2818 -0.985537
          CHANNELS 3 Zrotation Xrotation Yrotation
          End Site
          {
            OFFSET 0 -7.69 17.5
          }
        }
      }
    }
    JOINT LeftUpLeg
    {
      OFFSET 9.33559 -1.63058 -0.0435578
      CHANNELS 3 Zrotation Xrotation Yrotation
      JOINT LeftLeg
      {
        OFFSET 0.124601 -41.8685 -0.0153308
        CHANNELS 3 Zrotation Xrotation Yrotation
        JOINT LeftFoot
        {
          OFFSET -0.885525 -42.178 -0.480441
          CHANNELS 3 Zrotation Xrotation Yrotation
          End Site
          {
            OFFSET 0 -7.69 17.5
          }
        }
      }
    }
    JOINT Spine
    {
      OFFSET -0.030151 14.2977 0.0632059
      CHANNELS 3 Zrotation Xrotation Yrotation
      JOINT Spine1
      {
        OFFSET -0.0449239 9.71163 -4.69081e-05
        CHANNELS 3 Zrotation Xrotation Yrotation
        JOINT Spine2
        {
          OFFSET 0.0275009 10.1133 -0.0283136
          CHANNELS 3 Zrotation Xrotation Yrotation
          JOINT Spine3
          {
            OFFSET 0.0288761 9.7229 -0.000806902
            CHANNELS 3 Zrotation Xrotation Yrotation
            JOINT Neck
            {
              OFFSET -0.0518603 10.2949 0.241895
              CHANNELS 3 Zrotation Xrotation Yrotation
              JOINT Head
              {
                OFFSET -0.275401 9.55953 0.0709142
                CHANNELS 3 Zrotation Xrotation Yrotation
                End Site
                {
                  OFFSET 0 15.95 0
                }
              }
            }
            JOINT RightShoulder
            {
              OFFSET -3.17286 6.95881 0.00543218
              CHANNELS 3 Zrotation Xrotation Yrotation
              JOINT RightArm
              {
                OFFSET -12.7612 0.039846 0.0411956
                CHANNELS 3 Zrotation Xrotation Yrotation
                JOINT RightForeArm
                {
                  OFFSET -26.5517 0.0729849 0.08211
                  CHANNELS 3 Zrotation Xrotation Yrotation
                  JOINT RightHand
                  {
                    OFFSET -26.0042 -0.0197864 0.0403594
                    CHANNELS 3 Zrotation Xrotation Yrotation
                    JOINT RightHandThumb1
                    {
                      OFFSET -2.48905 0.190105 3.12053
                      CHANNELS 3 Zrotation Xrotation Yrotation
                      JOINT RightHandThumb2
                      {
                        OFFSET -3.68274 0 0
                        CHANNELS 3 Zrotation Xrotation Yrotation
                        JOINT RightHandThumb3
                        {
                          OFFSET -2.55832 0 0
                          CHANNELS 3 Zrotation Xrotation Yrotation
                          End Site
                          {
                            OFFSET -2.194 0 0
                          }
                        }
                      }
                    }
                    JOINT RightInHandIndex
                    {
                      OFFSET -3.22368 0.508421 1.97842
                      CHANNELS 3 Zrotation Xrotation Yrotation
                      JOINT RightHandIndex1
                      {
                        OFFSET -5.21684 -0.091368 0.999158
                        CHANNELS 3 Zrotation Xrotation Yrotation
                        JOINT RightHandIndex2
                        {
                          OFFSET -3.61937 0 0
                          CHANNELS 3 Zrotation Xrotation Yrotation
                          JOINT RightHandIndex3
                          {
                            OFFSET -2.0521 0 0
                            CHANNELS 3 Zrotation Xrotation Yrotation
                            End Site
                            {
                              OFFSET -1.805 0 0
                            }
                          }
                        }
                      }
                    }
                    JOINT RightInHandMiddle
                    {
                      OFFSET -3.38211 0.517263 0.756737
                      CHANNELS 3 Zrotation Xrotation Yrotation
                      JOINT RightHandMiddle1
                      {
                        OFFSET -5.17411 -0.084 0.313895
                        CHANNELS 3 Zrotation Xrotation Yrotation
                        JOINT RightHandMiddle2
                        {
                          OFFSET -3.94947 0 0
                          CHANNELS 3 Zrotation Xrotation Yrotation
                          JOINT RightHandMiddle3
                          {
                            OFFSET -2.47579 0 0
                            CHANNELS 3 Zrotation Xrotation Yrotation
                            End Site
                            {
                              OFFSET -1.975 0 0
                            }
                          }
                        }
                      }
                    }
                    JOINT RightInHandRing
                    {
                      OFFSET -3.36516 0.537895 -0.128947
                      CHANNELS 3 Zrotation Xrotation Yrotation
                      JOINT RightHandRing1
                      {
                        OFFSET -4.63474 -0.022105 -0.478947
                        CHANNELS 3 Zrotation Xrotation Yrotation
                        JOINT RightHandRing2
                        {
                          OFFSET -3.44238 0 0
                          CHANNELS 3 Zrotation Xrotation Yrotation
                          JOINT RightHandRing3
                          {
                            OFFSET -2.3881 0 0
                            CHANNELS 3 Zrotation Xrotation Yrotation
                            End Site
                            {
                              OFFSET -1.857 0 0
                            }
                          }
                        }
                      }
                    }
                    JOINT RightInHandPinky
                    {
                      OFFSET -3.16105 0.469368 -1.20179
                      CHANNELS 3 Zrotation Xrotation Yrotation
                      JOINT RightHandPinky1
                      {
                        OFFSET -4.14105 -0.022105 -1.09053
                        CHANNELS 3 Zrotation Xrotation Yrotation
                        JOINT RightHandPinky2
                        {
                          OFFSET -2.75653 0 0
                          CHANNELS 3 Zrotation Xrotation Yrotation
                          JOINT RightHandPinky3
                          {
                            OFFSET -1.74189 0 0
                            CHANNELS 3 Zrotation Xrotation Yrotation
                            End Site
                            {
                              OFFSET -1.645 0 0
                            }
                          }
                        }
                      }
                    }
                  }
                }
              }
            }
            JOINT LeftShoulder
            {
              OFFSET 3.22572 6.89245 -0.0537601
              CHANNELS 3 Zrotation Xrotation Yrotation
              JOINT LeftArm
              {
                OFFSET 12.8183 -0.0506887 -0.111983
                CHANNELS 3 Zrotation Xrotation Yrotation
                JOINT LeftForeArm
                {
                  OFFSET 26.4786 -0.0502099 0.0159937
                  CHANNELS 3 Zrotation Xrotation Yrotation
                  JOINT LeftHand
                  {
                    OFFSET 25.8931 -0.161185 0.0946899
                    CHANNELS 3 Zrotation Xrotation Yrotation
                    JOINT LeftHandThumb1
                    {
                      OFFSET 2.48905 0.190105 3.12053
                      CHANNELS 3 Zrotation Xrotation Yrotation
                      JOINT LeftHandThumb2
                      {
                        OFFSET 3.68274 0 0
                        CHANNELS 3 Zrotation Xrotation Yrotation
                        JOINT LeftHandThumb3
                        {
                          OFFSET 2.55832 0 0
                          CHANNELS 3 Zrotation Xrotation Yrotation
                          End Site
                          {
                            OFFSET 2.194 0 0
                          }
                        }
                      }
                    }
                    JOINT LeftInHandIndex
                    {
                      OFFSET 3.22368 0.508421 1.97842
                      CHANNELS 3 Zrotation Xrotation Yrotation
                      JOINT LeftHandIndex1
                      {
                        OFFSET 5.21684 -0.091368 0.999158
                        CHANNELS 3 Zrotation Xrotation Yrotation
                        JOINT LeftHandIndex2
                        {
                          OFFSET 3.61937 0 0
                          CHANNELS 3 Zrotation Xrotation Yrotation
                          JOINT LeftHandIndex3
                          {
                            OFFSET 2.0521 0 0
                            CHANNELS 3 Zrotation Xrotation Yrotation
                            End Site
                            {
                              OFFSET 1.805 0 0
                            }
                          }
                        }
                      }
                    }
                    JOINT LeftInHandMiddle
                    {
                      OFFSET 3.38211 0.517263 0.756737
                      CHANNELS 3 Zrotation Xrotation Yrotation
                      JOINT LeftHandMiddle1
                      {
                        OFFSET 5.17411 -0.084 0.313895
                        CHANNELS 3 Zrotation Xrotation Yrotation
                        JOINT LeftHandMiddle2
                        {
                          OFFSET 3.94947 0 0
                          CHANNELS 3 Zrotation Xrotation Yrotation
                          JOINT LeftHandMiddle3
                          {
                            OFFSET 2.47579 0 0
                            CHANNELS 3 Zrotation Xrotation Yrotation
                            End Site
                            {
                              OFFSET 1.975 0 0
                            }
                          }
                        }
                      }
                    }
                    JOINT LeftInHandRing
                    {
                      OFFSET 3.36516 0.537895 -0.128947
                      CHANNELS 3 Zrotation Xrotation Yrotation
                      JOINT LeftHandRing1
                      {
                        OFFSET 4.63474 -0.022105 -0.478947
                        CHANNELS 3 Zrotation Xrotation Yrotation
                        JOINT LeftHandRing2
                        {
                          OFFSET 3.44238 0 0
                          CHANNELS 3 Zrotation Xrotation Yrotation
                          JOINT LeftHandRing3
                          {
                            OFFSET 2.3881 0 0
                            CHANNELS 3 Zrotation Xrotation Yrotation
                            End Site
                            {
                              OFFSET 1.857 0 0
                            }
                          }
                        }
                      }
                    }
                    JOINT LeftInHandPinky
                    {
                      OFFSET 3.16105 0.469368 -1.20179
                      CHANNELS 3 Zrotation Xrotation Yrotation
                      JOINT LeftHandPinky1
                      {
                        OFFSET 4.14105 -0.022105 -1.09053
                        CHANNELS 3 Zrotation Xrotation Yrotation
                        JOINT LeftHandPinky2
                        {
                          OFFSET 2.75653 0 0
                          CHANNELS 3 Zrotation Xrotation Yrotation
                          JOINT LeftHandPinky3
                          {
                            OFFSET 1.74189 0 0
                            CHANNELS 3 Zrotation Xrotation Yrotation
                            End Site
                            {
                              OFFSET 1.645 0 0
                            }
                          }
                        }
                      }
                    }
                  }
                }
              }
            }
          }
        }
      }
    }
  }
}
MOTION
Frames: 2
Frame Time: 0.00833333
2.250000000000000000e+03 0.000000000000000000e+00 0.000000000000000000e+00 0.000000000000000000e+00 0.000000000000000000e+00 0.000000000000000000e+00 1.884340000000000259e+01 -2.225129999999999697e+01 -1.702069999999999936e+02 3.644329999999999359e+01 -2.623299999999999699e+01 5.942399999999999949e+01 -1.429950000000000188e+01 1.619190000000000040e+01 1.452500000000000036e+01 4.854279999999999262e+00 -6.154939999999999856e-01 9.018739999999999668e+01 3.541559999999999775e+01 -1.478570000000000206e+01 2.858779999999999433e+01 5.290580000000000283e+00 2.464819999999999567e+01 1.417289999999999850e+01 -5.004390000000000782e+01 1.827039999999999509e+01 1.350849999999999795e+02 -1.309180000000000099e+01 8.421139999999999404e+00 5.321469999999999256e-01 -3.266349999999999643e+00 2.113290000000000113e+00 -3.582769999999999566e-01 -5.327299999999999258e+00 3.395859999999998990e+00 -7.875959999999999628e-01 -1.224380000000000246e+00 -2.932229999999999670e+00 5.873810000000000420e-01 9.045719999999999317e+00 -6.494499999999999318e+01 1.103609999999999900e+02 -1.946239999999999526e+01 1.553330000000000055e+01 3.680120000000000147e+01 3.810070000000000512e+00 -1.197750000000000092e+00 3.036629999999999718e+00 6.790570000000001016e+01 -6.133719999999999395e+00 3.263839999999999009e+01 1.629380000000000450e+01 -7.858570000000000277e+01 7.957129999999997949e+01 -4.007759999999999323e+00 -2.052029999999999532e+01 9.063149999999998485e+00 2.818400000000000105e+01 1.072940000000000005e+01 1.915919999999999845e+01 1.179680000000000110e-14 -6.361109999999999741e-15 -1.000000000000000000e+01 6.178830000000001836e-15 -1.590280000000001063e-15 -1.000000000000000000e+01 -3.180549999999997615e-15 3.180550000000000376e-15 -3.180550000000000376e-15 1.998179999999999978e+01 8.718970000000000331e-01 2.396399999999999864e+00 2.400000000000000000e+01 2.385420000000000017e-15 2.226389999999999955e-14 2.000000000000000000e+01 7.951390000000046558e-16 2.862500000000000425e-14 -3.180549999999997615e-15 3.180550000000000376e-15 -3.180550000000000376e-15 2.000000000000000000e+01 -3.180549999999999982e-15 -6.361110000000001319e-15 2.400000000000000000e+01 -6.361109999999999741e-15 1.908330000000000462e-14 2.000000000000000000e+01 3.975689999999998936e-15 2.544439999999999986e-14 -3.180549999999997615e-15 3.180550000000000376e-15 -3.180550000000000376e-15 1.997479999999999833e+01 -1.025649999999999951e+00 -2.819380000000000219e+00 2.400000000000000000e+01 7.951390000000015004e-16 9.541659999999994201e-15 2.000000000000000000e+01 7.951389999999999226e-15 2.544439999999999354e-14 -3.180549999999997615e-15 3.180550000000000376e-15 -3.180550000000000376e-15 1.978150000000000119e+01 -3.009479999999999933e+00 -8.305149999999999366e+00 2.400000000000000000e+01 1.590280000000000274e-15 1.908330000000000147e-14 2.000000000000000000e+01 -3.975690000000000513e-16 3.816669999999999125e-14 -1.623060000000000258e+01 -2.505300000000000082e+01 -1.810859999999999559e+01 -3.545220000000000482e+00 3.930019999999999669e+01 -1.137480000000000189e+02 -4.639909999999999712e+01 1.313960000000000150e+01 -4.927639999999999532e+01 9.143869999999998299e+01 6.087389999999999191e+01 -1.597610000000000241e+01 -2.818400000000000105e+01 1.072940000000000005e+01 -1.915919999999999845e+01 4.568939999999994918e-16 1.987850000000000145e-15 1.000000000000000000e+01 -3.505109999999992776e-16 1.987850000000001723e-15 1.000000000000000000e+01 -1.590279999999999880e-15 -4.770830000000000256e-15 0.000000000000000000e+00 -1.998179999999999978e+01 8.718970000000000331e-01 -2.396399999999999864e+00 -2.400000000000000000e+01 -3.180550000000000771e-15 3.180550000000000771e-15 -2.000000000000000000e+01 0.000000000000000000e+00 6.361109999999999741e-15 -1.590279999999999880e-15 -4.770830000000000256e-15 0.000000000000000000e+00 -2.000000000000000000e+01 1.192710000000000403e-15 6.361109999999999741e-15 -2.400000000000000000e+01 3.180550000000000771e-15 1.908330000000000462e-14 -2.000000000000000000e+01 -3.180549999999997615e-15 -3.180550000000000771e-15 -1.590279999999999880e-15 -4.770830000000000256e-15 0.000000000000000000e+00 -1.997479999999999833e+01 -1.025649999999999951e+00 2.819380000000000219e+00 -2.400000000000000000e+01 -1.272219999999999993e-14 1.590280000000001378e-14 -2.000000000000000000e+01 9.541660000000000512e-15 1.272220000000000308e-14 -1.590279999999999880e-15 -4.770830000000000256e-15 0.000000000000000000e+00 -1.978150000000000119e+01 -3.009479999999999933e+00 8.305149999999999366e+00 -2.400000000000000000e+01 -6.361110000000000530e-15 2.862499999999999162e-14 -2.000000000000000000e+01 -6.361109999999999741e-15 9.541660000000000512e-15
2.250000000000000000e+03 0.000000000000000000e+00 0.000000000000000000e+00 0.000000000000000000e+00 0.000000000000000000e+00 0.000000000000000000e+00 1.878290000000000504e+01 -2.224990000000000023e+01 -1.701819999999999595e+02 3.639710000000000178e+01 -2.621300000000000097e+01 5.936229999999999052e+01 -1.433370000000000033e+01 1.619209999999999638e+01 1.455870000000000175e+01 4.881400000000000183e+00 -6.140649999999996389e-01 9.017239999999999611e+01 3.539479999999998938e+01 -1.472400000000000020e+01 2.843769999999999953e+01 5.154989999999999739e+00 2.457920000000000016e+01 1.437439999999999962e+01 -4.997650000000000148e+01 1.827890000000000015e+01 1.350529999999999688e+02 -1.313049999999999784e+01 8.415820000000000078e+00 5.396959999999999535e-01 -3.276019999999999488e+00 2.113290000000000113e+00 -3.581559999999999189e-01 -5.342539999999999623e+00 3.394969999999999821e+00 -7.886100000000000332e-01 -1.224860000000000060e+00 -2.931169999999999387e+00 5.895439999999998459e-01 8.822669999999998680e+00 -6.490229999999999677e+01 1.101620000000000061e+02 -1.949320000000000164e+01 1.552180000000000426e+01 3.682169999999999987e+01 3.833320000000000505e+00 -1.221059999999999590e+00 3.081989999999999785e+00 6.791140000000000043e+01 -6.148500000000002075e+00 3.259490000000000265e+01 1.657460000000000377e+01 -7.859010000000002094e+01 7.983029999999999404e+01 -3.984790000000001164e+00 -2.056250000000000000e+01 9.078010000000002577e+00 2.818400000000000105e+01 1.072940000000000005e+01 1.915919999999999845e+01 -3.229619999999999811e-15 0.000000000000000000e+00 -1.000000000000000000e+01 -8.006409999999999872e-15 9.541660000000003667e-15 -1.000000000000000000e+01 0.000000000000000000e+00 -6.361109999999999741e-15 -3.180550000000000771e-15 1.998179999999999978e+01 8.718970000000000331e-01 2.396399999999999864e+00 2.400000000000000000e+01 -3.180550000000000771e-15 -1.272219999999999677e-14 2.000000000000000000e+01 -5.565970000000001576e-15 -3.180550000000000771e-15 0.000000000000000000e+00 -6.361109999999999741e-15 -3.180550000000000771e-15 2.000000000000000000e+01 0.000000000000000000e+00 3.180549999999999193e-15 2.400000000000000000e+01 0.000000000000000000e+00 -9.541660000000003667e-15 2.000000000000000000e+01 -1.987850000000001723e-15 -9.541660000000000512e-15 0.000000000000000000e+00 -6.361109999999999741e-15 -3.180550000000000771e-15 1.997479999999999833e+01 -1.025649999999999951e+00 -2.819380000000000219e+00 2.400000000000000000e+01 -3.180550000000002348e-15 0.000000000000000000e+00 2.000000000000000000e+01 -3.975689999999992625e-16 -1.590280000000000116e-14 0.000000000000000000e+00 -6.361109999999999741e-15 -3.180550000000000771e-15 1.978150000000000119e+01 -3.009479999999999933e+00 -8.305149999999999366e+00 2.400000000000000000e+01 -2.782990000000000282e-15 -1.590280000000000432e-14 2.000000000000000000e+01 -6.758679999999998824e-15 -1.908330000000000778e-14 -1.620649999999999835e+01 -2.502789999999999893e+01 -1.804540000000000077e+01 -3.517250000000000654e+00 3.930140000000000100e+01 -1.137469999999999857e+02 -4.637210000000001031e+01 1.322480000000000189e+01 -4.927429999999999666e+01 9.138859999999999673e+01 6.079689999999999372e+01 -1.585250000000000270e+01 -2.818400000000000105e+01 1.072940000000000005e+01 -1.915919999999999845e+01 9.645200000000001402e-16 -3.180550000000000771e-15 1.000000000000000000e+01 -1.443240000000001734e-15 -1.471009999999999580e-14 1.000000000000000000e+01 -1.590279999999999880e-15 1.590279999999999485e-15 3.180549999999997615e-15 -1.998179999999999978e+01 8.718970000000000331e-01 -2.396399999999999864e+00 -2.400000000000000000e+01 1.590279999999999485e-15 0.000000000000000000e+00 -2.000000000000000000e+01 3.180549999999999193e-15 -6.361109999999999741e-15 -1.590279999999999880e-15 1.590279999999999485e-15 3.180549999999997615e-15 -2.000000000000000000e+01 3.578119999999999853e-15 -9.541659999999992623e-15 -2.400000000000000000e+01 1.590279999999999485e-15 -6.361109999999999741e-15 -2.000000000000000000e+01 0.000000000000000000e+00 -2.544440000000000301e-14 -1.590279999999999880e-15 1.590279999999999485e-15 3.180549999999997615e-15 -1.997479999999999833e+01 -1.025649999999999951e+00 2.819380000000000219e+00 -2.400000000000000000e+01 -7.951389999999992915e-15 -9.541660000000006823e-15 -2.000000000000000000e+01 3.180549999999999587e-15 3.180549999999999982e-15 -1.590279999999999880e-15 1.590279999999999485e-15 3.180549999999997615e-15 -1.978150000000000119e+01 -3.009479999999999933e+00 8.305149999999999366e+00 -2.400000000000000000e+01 1.590279999999996330e-15 0.000000000000000000e+00 -2.000000000000000000e+01 0.000000000000000000e+00 0.000000000000000000e+00
